<svg width="92" height="92" viewBox="0 0 92 92" fill="none" xmlns="http://www.w3.org/2000/svg">
<rect y="0.000976562" width="92" height="92" rx="30" fill="#FFD02F"/>
<path d="M28.9975 16.001H63.0006C70.1741 16.001 75.9982 21.825 75.9982 28.9985V63.0016C75.9982 70.1751 70.1741 75.9991 63.0006 75.9991H28.9975C21.824 75.9991 16 70.1751 16 63.0016V28.9985C16 21.825 21.824 16.001 28.9975 16.001Z" fill="#FFD02F"/>
<path d="M57.6955 23.4941H51.108L56.5947 33.1358L44.5204 23.4941H37.9329L43.97 35.2842L31.3454 23.4941H24.7578L31.3454 38.4981L24.7578 68.5061H31.3454L43.97 36.3496L37.9329 68.5061H44.5204L56.5947 34.2189L51.108 68.5061H57.6955L69.7698 30.9873L57.6955 23.4941Z" fill="#050038"/>
</svg>
