<svg width="92" height="92" viewBox="0 0 92 92" fill="none" xmlns="http://www.w3.org/2000/svg">
<rect width="92" height="92" rx="30" fill="#4353FF"/>
<path d="M60.2248 37.5722L55.2308 53.3118C55.2308 52.1063 51.7867 26 51.7867 26C43.8653 26 39.6634 31.6139 37.4592 37.5722L31.3631 53.3462C31.3631 52.2097 30.5021 37.71 30.5021 37.71C30.2081 34.5711 28.7731 31.649 26.469 29.4973C24.1649 27.3455 21.1516 26.1134 18 26.0344L24.4749 65.5728C32.7408 65.5728 37.2181 59.9589 39.5257 54.0006L44.6918 40.5686C44.6918 41.1196 48.136 65.5728 48.136 65.5728C51.516 65.5685 54.8068 64.4879 57.5315 62.4877C60.2561 60.4876 62.2731 57.6717 63.29 54.4483L75 26C66.7341 26 62.3946 31.6139 60.1903 37.5722H60.2248Z" fill="white"/>
</svg>
